<svg xmlns="http://www.w3.org/2000/svg" width="30" height="30"><defs><linearGradient id="a" x1="-.884" y1="-.895" x2="-1.607" y2="1" gradientUnits="objectBoundingBox"><stop offset="0" stop-color="#1a99dc"/><stop offset="1" stop-color="#04375c"/></linearGradient></defs><path data-name="Icon simple-instagram" d="M21.632 0c-5.877 0-6.61.027-8.918.13a15.951 15.951 0 00-5.251 1.006 10.593 10.593 0 00-3.832 2.495 10.555 10.555 0 00-2.495 3.832A15.9 15.9 0 00.13 12.714C.022 15.022 0 15.755 0 21.632s.027 6.61.13 8.918a15.961 15.961 0 001.006 5.25 10.608 10.608 0 002.495 3.832 10.578 10.578 0 003.832 2.495 15.971 15.971 0 005.251 1.006c2.307.108 3.041.13 8.918.13s6.61-.027 8.918-.13a16.008 16.008 0 005.25-1.005 11.055 11.055 0 006.328-6.328 15.961 15.961 0 001.006-5.251c.108-2.307.13-3.041.13-8.918s-.027-6.61-.13-8.918a16 16 0 00-1.006-5.251 10.617 10.617 0 00-2.495-3.832A10.54 10.54 0 0035.8 1.136 15.914 15.914 0 0030.55.13C28.242.022 27.509 0 21.632 0zm0 3.894c5.774 0 6.463.029 8.743.128a11.918 11.918 0 014.015.748 7.119 7.119 0 014.106 4.1 11.943 11.943 0 01.744 4.015c.1 2.282.126 2.967.126 8.743s-.027 6.463-.133 8.743a12.174 12.174 0 01-.759 4.015 6.869 6.869 0 01-1.621 2.491 6.749 6.749 0 01-2.487 1.623 12.031 12.031 0 01-4.029.744c-2.3.1-2.973.126-8.759.126s-6.464-.027-8.759-.133a12.266 12.266 0 01-4.031-.759A6.7 6.7 0 016.3 36.854a6.568 6.568 0 01-1.62-2.488 12.276 12.276 0 01-.757-4.029c-.081-2.271-.11-2.973-.11-8.732s.029-6.464.11-8.763a12.262 12.262 0 01.757-4.027A6.412 6.412 0 016.3 6.326a6.4 6.4 0 012.488-1.619 11.973 11.973 0 014-.759c2.3-.081 2.974-.108 8.759-.108l.081.054zm0 6.63A11.108 11.108 0 1032.74 21.632a11.107 11.107 0 00-11.108-11.108zm0 18.319a7.211 7.211 0 117.211-7.211 7.209 7.209 0 01-7.211 7.211zm14.144-18.757a2.6 2.6 0 11-2.6-2.594 2.6 2.6 0 012.6 2.594z" fill="url(#a)"/></svg>