<svg data-name="Group 245" xmlns="http://www.w3.org/2000/svg" width="329.368" height="78.929"><defs><clipPath id="a"><path data-name="Rectangle 3" fill="none" d="M0 0h329.368v78.929H0z"/></clipPath></defs><path data-name="Path 7" d="M41.3 49.012v29.917l13.66-9.385V48.8L41.3 39.551zM27.185 29.336v-.027l-13.593-9.943v20.107l11.323 7.94-11.323-7.887L.7 49.379 14.265 59.3l13.212-10.432-.292.124V29.336L41.3 39.526l13.071-10.217-14.328-9.943zM13.776 0L0 9.442l13.563 9.924 13.622-9.947z" fill="#fff"/><path data-name="Path 8" d="M27.185 29.319L13.592 39.425l13.593 9.362v20.565L41.3 78.928V59.044l13.66 10.367V48.678l-6.83 5.376-6.83-5.128v-9.5L27.185 29.182zM0 29.401l13.592 10.024V19.212L0 9.244z" fill="#0099dc"/><path data-name="Path 9" d="M54.956 49.065l-4.23 8.182-9.409-2.607z" fill="#0099dc"/><path data-name="Path 10" d="M41.312 58.435l13.645-9.421-12.968-9.316-14.512 8.974z" fill="#fff"/><g data-name="Group 7"><g data-name="Group 6" clip-path="url(#a)"><path data-name="Path 11" d="M69.864 29.091h15.155q4.184 0 5.225.08a10.731 10.731 0 012.782.55 3.757 3.757 0 011.642 1.171q1.665 2.042 1.663 8.489a20.876 20.876 0 01-.962 7.348 4.442 4.442 0 01-3.184 2.9 11.092 11.092 0 01-2.091.329q-.951.052-4.895.051H69.864zm-3.644-3.2v27.325h19.144a52.928 52.928 0 007.828-.4 7.121 7.121 0 005.966-5.3 28.206 28.206 0 00.9-7.969 44.617 44.617 0 00-.341-6.276 9.68 9.68 0 00-1.162-3.593 6.805 6.805 0 00-4.665-3.263 50.414 50.414 0 00-8.808-.52zm41.021 3.2h13.394q4.944 0 6.737.18a5.573 5.573 0 012.633.779q1.3.922 1.3 4.025 0 3.6-1.4 4.525a5.559 5.559 0 01-2.443.751q-1.5.151-6.826.149h-13.393zm-3.643-3.2v27.325h3.643V42.704h13.394q4.6.022 5.4.051a17.766 17.766 0 011.792.171 3.326 3.326 0 012.937 3.041q.14 1.282.14 4.625v2.624h3.643v-3.885a30.458 30.458 0 00-.221-4.605 3.959 3.959 0 00-1-2 4.974 4.974 0 00-2.8-1.363 6.017 6.017 0 003.323-1.66 4.226 4.226 0 00.921-1.972 18.686 18.686 0 00.259-3.595 11.188 11.188 0 00-.859-4.863 5.657 5.657 0 00-4.686-3.045q-1.919-.258-8.848-.339zm50.191 3.2h1.461l8.507 15.155h-18.593zm-2.284-3.2l-15.493 27.325h4.124l3.264-5.768h22.1l3.244 5.768h4.044l-15.454-27.328zm22.9 0v27.325h3.644V40.943h21.042v-3.2h-21.037v-8.652h22.022v-3.2zm25.666 0v3.2h13.734v24.125h3.641V29.091h13.673v-3.2zm33.093 0v27.325h26.807v-3.2h-23.156v-9.37h22.16v-3.2h-22.16v-8.355h23.143v-3.2zm92.552 0v11.55h-25.158V25.888h-3.644v27.328h3.644V40.642h25.164v12.574h3.642V25.888zm-57.937.5q-3.982.581-4.944 4.084a40.081 40.081 0 00-.8 9.508q0 6.868 1.061 9.461a5.246 5.246 0 004.125 3.211 76.713 76.713 0 0012.392.642 57.511 57.511 0 009.829-.561 4.708 4.708 0 004.064-3.744 35.227 35.227 0 00.441-5.125h-3.544a18.273 18.273 0 01-.34 3.986 2.138 2.138 0 01-1.02 1.23 6.669 6.669 0 01-2.263.61q-.781.1-3.632.212t-4.615.109q-5.765 0-8.868-.321a4.313 4.313 0 01-2.5-.87 3.677 3.677 0 01-1.009-2.292q-.142-1-.28-3.664t-.141-4.344a32.345 32.345 0 01.369-5.566 4.478 4.478 0 011.153-2.642 7.717 7.717 0 013.524-.931q2.7-.291 8.087-.29 7.427 0 9.452.82a2.573 2.573 0 011.479 1.272 7.3 7.3 0 01.381 2.793c0 .159.006.472.022.939h3.382a25.711 25.711 0 00-.342-4.784 4.355 4.355 0 00-1.412-2.293 5.8 5.8 0 00-2.633-1.332 51.2 51.2 0 00-10.151-.7 81.459 81.459 0 00-11.27.581" fill="#fff"/></g></g></svg>