<svg data-name="Group 246" xmlns="http://www.w3.org/2000/svg" width="334.824" height="80.236"><defs><linearGradient id="b" x1=".976" y1="1" x2=".065" y2="1" gradientUnits="objectBoundingBox"><stop offset="0" stop-color="#1a99dc"/><stop offset="1" stop-color="#04375c"/></linearGradient><clipPath id="a"><path data-name="Rectangle 1" fill="none" d="M0 0h334.824v80.236H0z"/></clipPath></defs><path data-name="Path 1" d="M38.139 49.824v30.412L50.755 70.7V49.607l-12.616-9.4zm-13.032-20v-.027L12.553 19.686v20.44L23.011 48.2l-10.458-8.02L.648 50.2l12.527 10.084 12.2-10.607-.269.126V29.822L38.139 40.18l12.076-10.385-13.233-10.109zM12.723 0L0 9.6l12.526 10.086L25.107 9.575z" fill="#00375c"/><path data-name="Path 2" d="M25.107 29.193l-12.554 10.4 12.554 9.633v21.157l13.032 9.855v-20.46l12.616 10.666V49.112l-6.308 5.531-6.307-5.277v-9.775L25.107 29.052zM0 29.277l12.553 10.314v-20.8L0 8.538z" fill="#0099dc"/><path data-name="Path 3" d="M50.756 50.405l-3.911 7.556-8.69-2.407z" fill="#0099dc"/><path data-name="Path 4" d="M38.154 58.81l12.6-8.7-11.971-8.605-13.4 8.289z" fill="#00375c"/><g data-name="Group 2"><g data-name="Group 1" clip-path="url(#a)"><path data-name="Path 5" d="M135.162 54.569h15.406q4.253 0 5.312.081a10.908 10.908 0 012.828.559 3.819 3.819 0 011.669 1.19q1.692 2.076 1.69 8.63a21.222 21.222 0 01-.978 7.47 4.516 4.516 0 01-3.236 2.95 11.279 11.279 0 01-2.126.335q-.967.053-4.976.052h-15.589zm-3.7-3.256v27.78h19.455a53.8 53.8 0 007.958-.408 7.239 7.239 0 006.065-5.393 28.673 28.673 0 00.916-8.1 45.355 45.355 0 00-.346-6.38 9.84 9.84 0 00-1.181-3.652 6.918 6.918 0 00-4.742-3.317 51.249 51.249 0 00-8.953-.528zm41.7 3.256h13.616q5.026 0 6.848.183a5.665 5.665 0 012.676.792q1.324.937 1.323 4.092 0 3.662-1.425 4.6a5.652 5.652 0 01-2.484.763q-1.524.154-6.939.151h-13.619zm-3.7-3.256v27.78h3.7V68.407h13.616q4.68.022 5.486.052a18.059 18.059 0 011.822.174 3.381 3.381 0 012.991 3.091q.142 1.3.142 4.7v2.668h3.7v-3.948a30.963 30.963 0 00-.224-4.682 4.024 4.024 0 00-1.016-2.034 5.056 5.056 0 00-2.849-1.385 6.116 6.116 0 003.378-1.688 4.3 4.3 0 00.937-2 19 19 0 00.263-3.654 11.374 11.374 0 00-.874-4.944 5.75 5.75 0 00-4.764-3.1q-1.951-.262-8.994-.345zm51.022 3.256h1.486l8.648 15.406H211.7zm-2.322-3.256L202.4 79.093h4.2l3.318-5.863h22.467l3.3 5.863h4.111l-15.712-27.78zm23.284 0v27.78h3.7V66.617h21.39V63.36h-21.39v-8.791h22.384v-3.257zm26.091 0v3.256h13.962v24.524h3.7V54.569h13.9v-3.257zm33.642 0v27.78h27.251v-3.257h-23.553v-9.525H327.4v-3.257h-22.523v-8.485H328.4v-3.257zm94.085 0v11.741h-25.588V51.312h-3.7v27.78h3.7V66.311h25.581v12.782h3.707V51.312zm-58.9.509q-4.048.591-5.026 4.152a40.746 40.746 0 00-.815 9.665q0 6.982 1.079 9.618a5.332 5.332 0 004.193 3.265q3.273.652 12.6.652a58.464 58.464 0 009.992-.57 4.786 4.786 0 004.132-3.806 35.807 35.807 0 00.448-5.21h-3.6a18.572 18.572 0 01-.346 4.052 2.173 2.173 0 01-1.037 1.251 6.78 6.78 0 01-2.3.62q-.793.1-3.692.215t-4.692.111q-5.861 0-9.015-.326a4.384 4.384 0 01-2.537-.884 3.738 3.738 0 01-1.025-2.33q-.144-1.019-.285-3.725t-.143-4.416a32.892 32.892 0 01.375-5.658 4.553 4.553 0 011.172-2.685 7.845 7.845 0 013.582-.947q2.748-.3 8.221-.294 7.55 0 9.608.834a2.616 2.616 0 011.5 1.293 7.421 7.421 0 01.387 2.839c0 .161.006.48.023.955h3.438a26.142 26.142 0 00-.347-4.863 4.428 4.428 0 00-1.435-2.331 5.892 5.892 0 00-2.676-1.354 52.043 52.043 0 00-10.319-.712 82.811 82.811 0 00-11.457.591" transform="translate(-64.139 -24.995)" fill="url(#b)"/></g></g></svg>