<svg xmlns="http://www.w3.org/2000/svg" width="30" height="30"><defs><linearGradient id="a" x1="-.884" y1="-.895" x2="-1.607" y2="1" gradientUnits="objectBoundingBox"><stop offset="0" stop-color="#1a99dc"/><stop offset="1" stop-color="#04375c"/></linearGradient></defs><path data-name="Icon awesome-twitter" d="M38.817 12.138c.027.384.027.769.027 1.153 0 11.722-8.922 25.228-25.228 25.228A25.057 25.057 0 010 34.538a18.342 18.342 0 002.141.11 17.758 17.758 0 0011.008-3.788 8.883 8.883 0 01-8.29-6.149 11.182 11.182 0 001.675.137 9.378 9.378 0 002.333-.3 8.868 8.868 0 01-7.11-8.7v-.11a8.93 8.93 0 004.008 1.125A8.88 8.88 0 013.02 5a25.2 25.2 0 0018.28 9.279 10.01 10.01 0 01-.22-2.031 8.875 8.875 0 0115.348-6.067 17.457 17.457 0 005.628-2.141 8.843 8.843 0 01-3.9 4.886 17.775 17.775 0 005.106-1.373 19.06 19.06 0 01-4.447 4.584z" transform="translate(0 -3.381)" fill="url(#a)"/></svg>