<svg xmlns="http://www.w3.org/2000/svg" width="30" height="30"><defs><linearGradient id="a" x1="-.884" y1="-.895" x2="-1.607" y2="1" gradientUnits="objectBoundingBox"><stop offset="0" stop-color="#1a99dc"/><stop offset="1" stop-color="#04375c"/></linearGradient></defs><path data-name="Icon metro-youtube" d="M14.224 1.928l-2.75 5.455-2.75-5.455H5.216l4.957 8.638.029-.017v6.642h2.544v-6.642l.029.017 4.957-8.638zm7.425 5.088a1.289 1.289 0 011.272 1.272v5.088a1.272 1.272 0 11-2.544 0V8.288a1.289 1.289 0 011.272-1.272zm0-2.544a3.827 3.827 0 00-3.816 3.816v5.088a3.816 3.816 0 107.631 0V8.288a3.827 3.827 0 00-3.816-3.816zm11.447 0v10.015c-1.11.926-2.544 1.484-2.544-1.814v-8.2h-2.543v8.717c.039 2.1.483 5.889 5.084 2.811v1.191h2.547V4.472zm3.816 25.438a1.273 1.273 0 00-1.272 1.272v1.272h2.544v-1.272a1.273 1.273 0 00-1.272-1.272zm-11.447 1.272v6.677c.861.861 2.544.954 2.544-.318v-5.962c0-1.272-1.272-1.669-2.544-.397zm17.6-6.139a5.289 5.289 0 00-5.2-5.1c-2.774-.138-9.12-.207-14.7-.207s-12.373.069-15.147.207a5.289 5.289 0 00-5.2 5.1c-.166 2.986-.25 4.068-.25 5.561s.083 3.732.25 6.718a5.289 5.289 0 005.2 5.1c2.774.138 9.571.207 15.147.207s11.921-.069 14.7-.207a5.289 5.289 0 005.2-5.1q.208-3.732.208-6.718c0-1.99-.069-3.073-.208-5.561zM10.2 40.085H7.658V27.366H5.115v-2.544h7.631v2.544H10.2zm10.175 0h-2.541v-1.191c-4.836 2.714-5.045.087-5.084-2.016V29.91h2.54v7.009c0 1.537 1.434 1.388 2.544.462V29.91h2.544zM30.553 37.5c0 2.659-2.723 3.434-5.088 1.367v1.213h-2.544V24.822h2.544v4.134c2.544-2.544 5.088-1.59 5.088.954zm10.175-5.051v1.272H35.64v2.544a1.272 1.272 0 102.544 0V35h2.544v1.272a3.816 3.816 0 11-7.631 0v-5.09a3.816 3.816 0 117.631 0z" transform="translate(-2.571 -1.928)" fill="url(#a)"/></svg>